$MeshFormat
4.1 0 8
$EndMeshFormat
$PhysicalNames
1
3 1 "domain"
$EndPhysicalNames
$Entities
8 12 6 1
1 0 0 3 0 
2 0 0 0 0 
3 0 1 3 0 
4 0 1 0 0 
5 1 0 3 0 
6 1 0 0 0 
7 1 1 3 0 
8 1 1 0 0 
1 -1e-07 -1e-07 -1.000000000583867e-07 1e-07 1e-07 3.0000001 0 2 2 -1 
2 -1e-07 -9.999999994736442e-08 2.9999999 1e-07 1.0000001 3.0000001 0 2 1 -3 
3 -1e-07 0.9999999000000001 -1.000000000583867e-07 1e-07 1.0000001 3.0000001 0 2 4 -3 
4 -1e-07 -9.999999994736442e-08 -1e-07 1e-07 1.0000001 1e-07 0 2 2 -4 
5 0.9999999000000001 -1e-07 -1.000000000583867e-07 1.0000001 1e-07 3.0000001 0 2 6 -5 
6 0.9999999000000001 -9.999999994736442e-08 2.9999999 1.0000001 1.0000001 3.0000001 0 2 5 -7 
7 0.9999999000000001 0.9999999000000001 -1.000000000583867e-07 1.0000001 1.0000001 3.0000001 0 2 8 -7 
8 0.9999999000000001 -9.999999994736442e-08 -1e-07 1.0000001 1.0000001 1e-07 0 2 6 -8 
9 -9.999999994736442e-08 -1e-07 -1e-07 1.0000001 1e-07 1e-07 0 2 2 -6 
10 -9.999999994736442e-08 -1e-07 2.9999999 1.0000001 1e-07 3.0000001 0 2 1 -5 
11 -9.999999994736442e-08 0.9999999000000001 -1e-07 1.0000001 1.0000001 1e-07 0 2 4 -8 
12 -9.999999994736442e-08 0.9999999000000001 2.9999999 1.0000001 1.0000001 3.0000001 0 2 3 -7 
1 -1e-07 -9.999999994736442e-08 -1.000000000583867e-07 1e-07 1.0000001 3.0000001 0 4 -1 4 3 -2 
2 0.9999999000000001 -9.999999994736442e-08 -1.000000000583867e-07 1.0000001 1.0000001 3.0000001 0 4 -5 8 7 -6 
3 -9.999999994736442e-08 -1e-07 -1.000000000583867e-07 1.0000001 1e-07 3.0000001 0 4 -9 1 10 -5 
4 -9.999999994736442e-08 0.9999999000000001 -1.000000000583867e-07 1.0000001 1.0000001 3.0000001 0 4 -11 3 12 -7 
5 -9.999999994736442e-08 -9.999999994736442e-08 -1e-07 1.0000001 1.0000001 1e-07 0 4 -4 9 8 -11 
6 -9.999999994736442e-08 -9.999999994736442e-08 2.9999999 1.0000001 1.0000001 3.0000001 0 4 -2 10 6 -12 
1 -9.999999994736442e-08 -9.999999994736442e-08 -1.000000000583867e-07 1.0000001 1.0000001 3.0000001 1 1 6 -1 2 -3 4 -5 6 
$EndEntities
$Nodes
19 31 1 31
0 1 0 1
1
0 0 3
0 2 0 1
2
0 0 0
0 3 0 1
3
0 1 3
0 4 0 1
4
0 1 0
0 5 0 1
5
1 0 3
0 6 0 1
6
1 0 0
0 7 0 1
7
1 1 3
0 8 0 1
8
1 1 0
1 1 0 2
9
10
0 0 1
0 0 2
1 3 0 2
11
12
0 1 1
0 1 2
1 5 0 2
13
14
1 0 1
1 0 2
1 7 0 2
15
16
1 1 1
1 1 2
2 1 0 3
17
18
19
0 0.5 2.5
0 0.5 0.5
0 0.5 1.5
2 2 0 3
20
21
22
1 0.5 2.5
1 0.5 0.5
1 0.5 1.5
2 3 0 3
23
24
25
0.5 0 0.5
0.5 0 2.5
0.5 0 1.5
2 4 0 3
26
27
28
0.5 1 0.5
0.5 1 2.5
0.5 1 1.5
2 5 0 1
29
0.5 0.5 0
2 6 0 1
30
0.5 0.5 3
3 1 0 1
31
0.5 0.5 1
$EndNodes
$Elements
1 68 1 68
3 1 4 68
1 25 28 10 20 
2 19 28 10 25 
3 14 28 22 25 
4 24 12 17 20 
5 20 12 17 27 
6 14 28 25 20 
7 19 28 12 10 
8 14 16 28 20 
9 16 12 20 27 
10 14 10 20 25 
11 12 17 10 24 
12 24 10 12 20 
13 10 28 12 20 
14 12 16 20 28 
15 16 14 28 22 
16 14 10 24 20 
17 17 20 30 24 
18 20 17 30 27 
19 23 26 21 29 
20 23 18 26 29 
21 26 23 21 31 
22 26 18 23 31 
23 25 19 28 31 
24 28 22 25 31 
25 10 9 19 25 
26 2 9 23 18 
27 8 21 29 6 
28 28 11 19 12 
29 24 30 1 5 
30 1 17 3 30 
31 17 1 10 24 
32 5 14 24 20 
33 12 3 17 27 
34 30 5 20 7 
35 3 30 27 7 
36 20 27 7 16 
37 15 16 28 22 
38 18 4 11 26 
39 22 14 25 13 
40 26 8 15 21 
41 4 18 2 29 
42 4 8 26 29 
43 29 23 2 6 
44 13 23 21 6 
45 11 19 9 31 
46 13 23 9 31 
47 11 26 15 31 
48 15 21 13 31 
49 9 18 11 31 
50 9 25 13 31 
51 15 28 11 31 
52 13 22 15 31 
53 18 23 2 29 
54 1 17 30 24 
55 24 30 5 20 
56 30 17 3 27 
57 21 26 8 29 
58 18 4 26 29 
59 26 21 15 31 
60 21 23 13 31 
61 9 23 18 31 
62 11 18 26 31 
63 9 19 25 31 
64 11 28 19 31 
65 28 15 22 31 
66 25 22 13 31 
67 29 21 23 6 
68 30 20 27 7 
$EndElements
