$MeshFormat
2.2 0 8
$EndMeshFormat
$PhysicalNames
2
2 1 "boundary"
3 2 "domain"
$EndPhysicalNames
$Nodes
93
1 0 0 1
2 0 0 0
3 0 1 1
4 0 1 0
5 0 0.5 0.5
6 0 0 0.5
7 0 0.25 0.75
8 0 0.25 0.25
9 0 0.5 1
10 0 0.75 0.75
11 0 0.75 0.25
12 0 0.5 0
13 0 1 0.5
14 1 0 0
15 1 0 1
16 0.5 0 0.5
17 0.25 0 0.25
18 0.25 0 0.75
19 0.75 0 0.75
20 0.5 0 1
21 0.5 0 0
22 0.75 0 0.25
23 1 0 0.5
24 0.5 1 1
25 0.5 0.5 1
26 1 0.5 1
27 0.25 0.75 1
28 0.25 0.25 1
29 0.75 0.25 1
30 0.25 1 1
31 0.5 0.75 1
32 1 0.25 1
33 0.75 0.5 1
34 1 1 0
35 1 1 0.5
36 0.5 1 0.5
37 0.25 1 0.25
38 0.25 1 0.75
39 0.5 1 0.75
40 0.75 1 0.25
41 0.5 1 0
42 1 1 0.25
43 0.75 1 0.5
44 0.5 0.5 0
45 0.25 0.25 0
46 0.25 0.75 0
47 0.75 0.25 0
48 0.75 0.75 0
49 1 0.5 0
50 1 0.5 0.5
51 1 0.25 0.75
52 1 0.25 0.25
53 1 0.75 0.25
54 1 0.5 0.75
55 1 0.75 0.5
56 0.5 0.5 0.5
57 0.5 0.75 0.75
58 0.5 0.875 0.875
59 0.5 0.625 0.875
60 0.5 0.875 0.625
61 0.5 0.625 0.625
62 0.5 0.5 0.75
63 0.5 0.75 0.5
64 0.75 0.5 0.75
65 0.875 0.5 0.875
66 0.625 0.5 0.875
67 0.625 0.5 0.625
68 0.875 0.5 0.625
69 0.75 0.5 0.5
70 0.75 0.75 0.5
71 0.875 0.875 0.5
72 0.625 0.875 0.5
73 0.875 0.625 0.5
74 0.625 0.625 0.5
75 0.5 0.25 0.75
76 0.25 0.25 0.5
77 0.25 0.5 0.75
78 0.25 0.5 0.5
79 0.5 0.25 0.5
80 0.5 0.25 0.25
81 0.25 0.5 0.25
82 0.5 0.5 0.25
83 0.25 0.75 0.5
84 0.5 0.75 0.25
85 0.25 0.625 0.625
86 0.625 0.25 0.625
87 0.625 0.625 0.25
88 0.75 0.5 0.25
89 0.75 0.25 0.5
90 0.25 0.875 0.875
91 0.875 0.25 0.875
92 0.875 0.875 0.25
93 0.75 0.25 0.25
$EndNodes
$Elements
432
1 2 2 1 1 2 6 8
2 2 2 1 1 6 7 8
3 2 2 1 1 6 1 7
4 2 2 1 1 8 7 5
5 2 2 1 1 5 7 10
6 2 2 1 1 7 9 10
7 2 2 1 1 7 1 9
8 2 2 1 1 10 9 3
9 2 2 1 1 5 11 8
10 2 2 1 1 11 12 8
11 2 2 1 1 11 4 12
12 2 2 1 1 8 12 2
13 2 2 1 1 3 13 10
14 2 2 1 1 13 11 10
15 2 2 1 1 13 4 11
16 2 2 1 1 10 11 5
17 2 2 1 2 1 6 18
18 2 2 1 2 6 17 18
19 2 2 1 2 6 2 17
20 2 2 1 2 18 17 16
21 2 2 1 2 16 19 18
22 2 2 1 2 19 20 18
23 2 2 1 2 19 15 20
24 2 2 1 2 18 20 1
25 2 2 1 2 16 17 22
26 2 2 1 2 17 21 22
27 2 2 1 2 17 2 21
28 2 2 1 2 22 21 14
29 2 2 1 2 14 23 22
30 2 2 1 2 23 19 22
31 2 2 1 2 23 15 19
32 2 2 1 2 22 19 16
33 2 2 1 3 25 27 28
34 2 2 1 3 27 9 28
35 2 2 1 3 27 3 9
36 2 2 1 3 28 9 1
37 2 2 1 3 25 28 29
38 2 2 1 3 28 20 29
39 2 2 1 3 28 1 20
40 2 2 1 3 29 20 15
41 2 2 1 3 24 30 31
42 2 2 1 3 30 27 31
43 2 2 1 3 30 3 27
44 2 2 1 3 31 27 25
45 2 2 1 3 25 29 33
46 2 2 1 3 29 32 33
47 2 2 1 3 29 15 32
48 2 2 1 3 33 32 26
49 2 2 1 4 36 37 38
50 2 2 1 4 37 13 38
51 2 2 1 4 37 4 13
52 2 2 1 4 38 13 3
53 2 2 1 4 36 38 39
54 2 2 1 4 38 30 39
55 2 2 1 4 38 3 30
56 2 2 1 4 39 30 24
57 2 2 1 4 36 40 37
58 2 2 1 4 40 41 37
59 2 2 1 4 40 34 41
60 2 2 1 4 37 41 4
61 2 2 1 4 35 42 43
62 2 2 1 4 42 40 43
63 2 2 1 4 42 34 40
64 2 2 1 4 43 40 36
65 2 2 1 5 44 45 46
66 2 2 1 5 45 12 46
67 2 2 1 5 45 2 12
68 2 2 1 5 46 12 4
69 2 2 1 5 14 21 47
70 2 2 1 5 21 45 47
71 2 2 1 5 21 2 45
72 2 2 1 5 47 45 44
73 2 2 1 5 4 41 46
74 2 2 1 5 41 48 46
75 2 2 1 5 41 34 48
76 2 2 1 5 46 48 44
77 2 2 1 5 44 48 47
78 2 2 1 5 48 49 47
79 2 2 1 5 48 34 49
80 2 2 1 5 47 49 14
81 2 2 1 6 50 51 52
82 2 2 1 6 51 23 52
83 2 2 1 6 51 15 23
84 2 2 1 6 52 23 14
85 2 2 1 6 50 52 53
86 2 2 1 6 52 49 53
87 2 2 1 6 52 14 49
88 2 2 1 6 53 49 34
89 2 2 1 6 26 32 54
90 2 2 1 6 32 51 54
91 2 2 1 6 32 15 51
92 2 2 1 6 54 51 50
93 2 2 1 6 50 53 55
94 2 2 1 6 53 42 55
95 2 2 1 6 53 34 42
96 2 2 1 6 55 42 35
97 2 2 1 7 57 58 59
98 2 2 1 7 58 31 59
99 2 2 1 7 58 24 31
100 2 2 1 7 59 31 25
101 2 2 1 7 24 58 39
102 2 2 1 7 58 60 39
103 2 2 1 7 58 57 60
104 2 2 1 7 39 60 36
105 2 2 1 7 56 61 62
106 2 2 1 7 61 59 62
107 2 2 1 7 61 57 59
108 2 2 1 7 62 59 25
109 2 2 1 7 57 61 60
110 2 2 1 7 61 63 60
111 2 2 1 7 61 56 63
112 2 2 1 7 60 63 36
113 2 2 1 8 26 65 33
114 2 2 1 8 65 66 33
115 2 2 1 8 65 64 66
116 2 2 1 8 33 66 25
117 2 2 1 8 64 67 66
118 2 2 1 8 67 62 66
119 2 2 1 8 67 56 62
120 2 2 1 8 66 62 25
121 2 2 1 8 64 65 68
122 2 2 1 8 65 54 68
123 2 2 1 8 65 26 54
124 2 2 1 8 68 54 50
125 2 2 1 8 56 67 69
126 2 2 1 8 67 68 69
127 2 2 1 8 67 64 68
128 2 2 1 8 69 68 50
129 2 2 1 9 70 71 72
130 2 2 1 9 71 43 72
131 2 2 1 9 71 35 43
132 2 2 1 9 72 43 36
133 2 2 1 9 35 71 55
134 2 2 1 9 71 73 55
135 2 2 1 9 71 70 73
136 2 2 1 9 55 73 50
137 2 2 1 9 56 74 63
138 2 2 1 9 74 72 63
139 2 2 1 9 74 70 72
140 2 2 1 9 63 72 36
141 2 2 1 9 70 74 73
142 2 2 1 9 74 69 73
143 2 2 1 9 74 56 69
144 2 2 1 9 73 69 50
145 4 2 2 3 25 75 77 62
146 4 2 2 3 75 16 76 79
147 4 2 2 3 77 76 5 78
148 4 2 2 3 62 79 78 56
149 4 2 2 3 75 77 62 79
150 4 2 2 3 75 79 76 77
151 4 2 2 3 77 62 79 78
152 4 2 2 3 77 78 79 76
153 4 2 2 3 16 80 76 79
154 4 2 2 3 80 44 81 82
155 4 2 2 3 76 81 5 78
156 4 2 2 3 79 82 78 56
157 4 2 2 3 80 76 79 82
158 4 2 2 3 80 82 81 76
159 4 2 2 3 76 79 82 78
160 4 2 2 3 76 78 82 81
161 4 2 2 3 36 83 84 63
162 4 2 2 3 83 5 81 78
163 4 2 2 3 84 81 44 82
164 4 2 2 3 63 78 82 56
165 4 2 2 3 83 84 63 78
166 4 2 2 3 83 78 81 84
167 4 2 2 3 84 63 78 82
168 4 2 2 3 84 82 78 81
169 4 2 2 3 5 85 77 78
170 4 2 2 3 85 57 59 61
171 4 2 2 3 77 59 25 62
172 4 2 2 3 78 61 62 56
173 4 2 2 3 85 77 78 61
174 4 2 2 3 85 61 59 77
175 4 2 2 3 77 78 61 62
176 4 2 2 3 77 62 61 59
177 4 2 2 3 36 60 83 63
178 4 2 2 3 60 57 85 61
179 4 2 2 3 83 85 5 78
180 4 2 2 3 63 61 78 56
181 4 2 2 3 60 83 63 61
182 4 2 2 3 60 61 85 83
183 4 2 2 3 83 63 61 78
184 4 2 2 3 83 78 61 85
185 4 2 2 3 56 62 79 67
186 4 2 2 3 62 25 75 66
187 4 2 2 3 79 75 16 86
188 4 2 2 3 67 66 86 64
189 4 2 2 3 62 79 67 66
190 4 2 2 3 62 66 75 79
191 4 2 2 3 79 67 66 86
192 4 2 2 3 79 86 66 75
193 4 2 2 3 44 84 82 87
194 4 2 2 3 84 36 63 72
195 4 2 2 3 82 63 56 74
196 4 2 2 3 87 72 74 70
197 4 2 2 3 84 82 87 72
198 4 2 2 3 84 72 63 82
199 4 2 2 3 82 87 72 74
200 4 2 2 3 82 74 72 63
201 4 2 2 3 50 88 69 73
202 4 2 2 3 88 44 82 87
203 4 2 2 3 69 82 56 74
204 4 2 2 3 73 87 74 70
205 4 2 2 3 88 69 73 87
206 4 2 2 3 88 87 82 69
207 4 2 2 3 69 73 87 74
208 4 2 2 3 69 74 87 82
209 4 2 2 3 16 79 86 89
210 4 2 2 3 79 56 67 69
211 4 2 2 3 86 67 64 68
212 4 2 2 3 89 69 68 50
213 4 2 2 3 79 86 89 69
214 4 2 2 3 79 69 67 86
215 4 2 2 3 86 89 69 68
216 4 2 2 3 86 68 69 67
217 4 2 2 3 5 85 10 77
218 4 2 2 3 85 57 90 59
219 4 2 2 3 10 90 3 27
220 4 2 2 3 77 59 27 25
221 4 2 2 3 85 10 77 59
222 4 2 2 3 85 59 90 10
223 4 2 2 3 10 77 59 27
224 4 2 2 3 10 27 59 90
225 4 2 2 3 5 85 83 10
226 4 2 2 3 85 57 60 90
227 4 2 2 3 83 60 36 38
228 4 2 2 3 10 90 38 3
229 4 2 2 3 85 83 10 90
230 4 2 2 3 85 90 60 83
231 4 2 2 3 83 10 90 38
232 4 2 2 3 83 38 90 60
233 4 2 2 3 64 66 86 91
234 4 2 2 3 66 25 75 29
235 4 2 2 3 86 75 16 19
236 4 2 2 3 91 29 19 15
237 4 2 2 3 66 86 91 29
238 4 2 2 3 66 29 75 86
239 4 2 2 3 86 91 29 19
240 4 2 2 3 86 19 29 75
241 4 2 2 3 16 86 19 89
242 4 2 2 3 86 64 91 68
243 4 2 2 3 19 91 15 51
244 4 2 2 3 89 68 51 50
245 4 2 2 3 86 19 89 68
246 4 2 2 3 86 68 91 19
247 4 2 2 3 19 89 68 51
248 4 2 2 3 19 51 68 91
249 4 2 2 3 70 73 87 92
250 4 2 2 3 73 50 88 53
251 4 2 2 3 87 88 44 48
252 4 2 2 3 92 53 48 34
253 4 2 2 3 73 87 92 53
254 4 2 2 3 73 53 88 87
255 4 2 2 3 87 92 53 48
256 4 2 2 3 87 48 53 88
257 4 2 2 3 44 84 87 48
258 4 2 2 3 84 36 72 40
259 4 2 2 3 87 72 70 92
260 4 2 2 3 48 40 92 34
261 4 2 2 3 84 87 48 40
262 4 2 2 3 84 40 72 87
263 4 2 2 3 87 48 40 92
264 4 2 2 3 87 92 40 72
265 4 2 2 3 16 79 89 22
266 4 2 2 3 79 56 69 93
267 4 2 2 3 89 69 50 52
268 4 2 2 3 22 93 52 14
269 4 2 2 3 79 89 22 93
270 4 2 2 3 79 93 69 89
271 4 2 2 3 89 22 93 52
272 4 2 2 3 89 52 93 69
273 4 2 2 3 50 69 88 52
274 4 2 2 3 69 56 82 93
275 4 2 2 3 88 82 44 47
276 4 2 2 3 52 93 47 14
277 4 2 2 3 69 88 52 93
278 4 2 2 3 69 93 82 88
279 4 2 2 3 88 52 93 47
280 4 2 2 3 88 47 93 82
281 4 2 2 3 56 79 82 93
282 4 2 2 3 79 16 80 22
283 4 2 2 3 82 80 44 47
284 4 2 2 3 93 22 47 14
285 4 2 2 3 79 82 93 22
286 4 2 2 3 79 22 80 82
287 4 2 2 3 82 93 22 47
288 4 2 2 3 82 47 22 80
289 4 2 2 3 1 6 7 18
290 4 2 2 3 6 2 8 17
291 4 2 2 3 7 8 5 76
292 4 2 2 3 18 17 76 16
293 4 2 2 3 6 7 18 17
294 4 2 2 3 6 17 8 7
295 4 2 2 3 7 18 17 76
296 4 2 2 3 7 76 17 8
297 4 2 2 3 2 45 12 8
298 4 2 2 3 45 44 46 81
299 4 2 2 3 12 46 4 11
300 4 2 2 3 8 81 11 5
301 4 2 2 3 45 12 8 81
302 4 2 2 3 45 81 46 12
303 4 2 2 3 12 8 81 11
304 4 2 2 3 12 11 81 46
305 4 2 2 3 4 11 37 13
306 4 2 2 3 11 5 83 10
307 4 2 2 3 37 83 36 38
308 4 2 2 3 13 10 38 3
309 4 2 2 3 11 37 13 10
310 4 2 2 3 11 10 83 37
311 4 2 2 3 37 13 10 38
312 4 2 2 3 37 38 10 83
313 4 2 2 3 1 7 9 28
314 4 2 2 3 7 5 10 77
315 4 2 2 3 9 10 3 27
316 4 2 2 3 28 77 27 25
317 4 2 2 3 7 9 28 77
318 4 2 2 3 7 77 10 9
319 4 2 2 3 9 28 77 27
320 4 2 2 3 9 27 77 10
321 4 2 2 3 1 18 28 20
322 4 2 2 3 18 16 75 19
323 4 2 2 3 28 75 25 29
324 4 2 2 3 20 19 29 15
325 4 2 2 3 18 28 20 19
326 4 2 2 3 18 19 75 28
327 4 2 2 3 28 20 19 29
328 4 2 2 3 28 29 19 75
329 4 2 2 3 44 46 84 48
330 4 2 2 3 46 4 37 41
331 4 2 2 3 84 37 36 40
332 4 2 2 3 48 41 40 34
333 4 2 2 3 46 84 48 41
334 4 2 2 3 46 41 37 84
335 4 2 2 3 84 48 41 40
336 4 2 2 3 84 40 41 37
337 4 2 2 3 2 45 17 21
338 4 2 2 3 45 44 80 47
339 4 2 2 3 17 80 16 22
340 4 2 2 3 21 47 22 14
341 4 2 2 3 45 17 21 47
342 4 2 2 3 45 47 80 17
343 4 2 2 3 17 21 47 22
344 4 2 2 3 17 22 47 80
345 4 2 2 3 34 53 48 49
346 4 2 2 3 53 50 88 52
347 4 2 2 3 48 88 44 47
348 4 2 2 3 49 52 47 14
349 4 2 2 3 53 48 49 52
350 4 2 2 3 53 52 88 48
351 4 2 2 3 48 49 52 47
352 4 2 2 3 48 47 52 88
353 4 2 2 3 50 51 89 52
354 4 2 2 3 51 15 19 23
355 4 2 2 3 89 19 16 22
356 4 2 2 3 52 23 22 14
357 4 2 2 3 51 89 52 23
358 4 2 2 3 51 23 19 89
359 4 2 2 3 89 52 23 22
360 4 2 2 3 89 22 23 19
361 4 2 2 3 44 46 81 84
362 4 2 2 3 46 4 11 37
363 4 2 2 3 81 11 5 83
364 4 2 2 3 84 37 83 36
365 4 2 2 3 46 81 84 37
366 4 2 2 3 46 37 11 81
367 4 2 2 3 81 84 37 83
368 4 2 2 3 81 83 37 11
369 4 2 2 3 16 76 18 75
370 4 2 2 3 76 5 7 77
371 4 2 2 3 18 7 1 28
372 4 2 2 3 75 77 28 25
373 4 2 2 3 76 18 75 77
374 4 2 2 3 76 77 7 18
375 4 2 2 3 18 75 77 28
376 4 2 2 3 18 28 77 7
377 4 2 2 3 2 45 8 17
378 4 2 2 3 45 44 81 80
379 4 2 2 3 8 81 5 76
380 4 2 2 3 17 80 76 16
381 4 2 2 3 45 8 17 80
382 4 2 2 3 45 80 81 8
383 4 2 2 3 8 17 80 76
384 4 2 2 3 8 76 80 81
385 4 2 2 3 57 60 90 58
386 4 2 2 3 60 36 38 39
387 4 2 2 3 90 38 3 30
388 4 2 2 3 58 39 30 24
389 4 2 2 3 60 90 58 39
390 4 2 2 3 60 39 38 90
391 4 2 2 3 90 58 39 30
392 4 2 2 3 90 30 39 38
393 4 2 2 3 24 30 58 31
394 4 2 2 3 30 3 90 27
395 4 2 2 3 58 90 57 59
396 4 2 2 3 31 27 59 25
397 4 2 2 3 30 58 31 27
398 4 2 2 3 30 27 90 58
399 4 2 2 3 58 31 27 59
400 4 2 2 3 58 59 27 90
401 4 2 2 3 15 91 29 32
402 4 2 2 3 91 64 66 65
403 4 2 2 3 29 66 25 33
404 4 2 2 3 32 65 33 26
405 4 2 2 3 91 29 32 65
406 4 2 2 3 91 65 66 29
407 4 2 2 3 29 32 65 33
408 4 2 2 3 29 33 65 66
409 4 2 2 3 26 32 65 54
410 4 2 2 3 32 15 91 51
411 4 2 2 3 65 91 64 68
412 4 2 2 3 54 51 68 50
413 4 2 2 3 32 65 54 51
414 4 2 2 3 32 51 91 65
415 4 2 2 3 65 54 51 68
416 4 2 2 3 65 68 51 91
417 4 2 2 3 35 55 71 42
418 4 2 2 3 55 50 73 53
419 4 2 2 3 71 73 70 92
420 4 2 2 3 42 53 92 34
421 4 2 2 3 55 71 42 53
422 4 2 2 3 55 53 73 71
423 4 2 2 3 71 42 53 92
424 4 2 2 3 71 92 53 73
425 4 2 2 3 36 43 72 40
426 4 2 2 3 43 35 71 42
427 4 2 2 3 72 71 70 92
428 4 2 2 3 40 42 92 34
429 4 2 2 3 43 72 40 42
430 4 2 2 3 43 42 71 72
431 4 2 2 3 72 40 42 92
432 4 2 2 3 72 92 42 71
$EndElements
